# xmcd
#
# Track frame offsets:
#	150
#	13826
#	25360
#	44519
#	58774
#	68707
#	79236
#	92952
#	112520
#	118893
#	135687
#	154786
#	164291
#	170637
#	179582
#
# Disc length: 2662 seconds
#
# Revision: 0
# Processed by: cddbd v1.4PL0 Copyright (c) Steve Scherf et al.
# Submitted via: MusicWizard 6.0.0
#
DISCID=cf0a640f
DTITLE=Bobby Bare - Drunk And Crazy
DYEAR=1980
DGENRE=Country
TTITLE0=Drunk And Crazy
TTITLE1=Food Blues
TTITLE2=The World's Last Truck Driving Man
TTITLE3=I Can Almost See Houston From Here
TTITLE4=If That Ain't Love
TTITLE5=Rock And Roll Hotel
TTITLE6=Song Of The South
TTITLE7=Appaloosa Rider
TTITLE8=Bathroom Tissue Paper Letter
TTITLE9=Willie Jones
TTITLE10=Gotta Get Rid Of This Band
TTITLE11=Drinkin' And Druggin' And Watchin' Tv
TTITLE12=Your Credit Card Won't Get You Into Heaven
TTITLE13=I've Never Gone To Bed With An Ugly Woman
TTITLE14=Desperados Waiting For A Train
EXTD=(c)1980 Columbia
EXTT0=
EXTT1=
EXTT2=
EXTT3=
EXTT4=
EXTT5=
EXTT6=
EXTT7=
EXTT8=
EXTT9=
EXTT10=
EXTT11=
EXTT12=
EXTT13=
EXTT14=
PLAYORDER=
